<svg height="512pt" viewBox="-25 0 511 512" width="512pt" xmlns="http://www.w3.org/2000/svg"><path d="m429.738281 175.4375-160.773437 160.773438c-8.398438 8.394531-22.007813 8.394531-30.402344 0l-93.515625-93.515626c-8.398437-8.394531-8.398437-22.003906 0-30.398437l160.773437-160.777344c8.394532-8.394531 22.003907-8.394531 30.402344 0l93.515625 93.515625c8.394531 8.394532 8.394531 22.007813 0 30.402344zm0 0" fill="#89d47f"/><path d="m238.5625 336.210938c8.394531 8.394531 22.003906 8.394531 30.402344 0l92.933594-92.933594c-71.695313-23.804688-93.746094-95.390625-94.410157-153.425782l-122.441406 122.445313c-8.398437 8.394531-8.398437 22.003906 0 30.398437zm0 0" fill="#5ec783"/><path d="m429.738281 175.4375-160.773437 160.773438c-8.398438 8.394531-22.007813 8.394531-30.402344 0l-46.757812-46.757813 191.175781-191.175781 46.757812 46.757812c8.394531 8.394532 8.394531 22.007813 0 30.402344zm0 0" fill="#f7ef87"/><path d="m257.484375 103.875c0 57.367188-46.507813 103.871094-103.875 103.871094s-103.875-46.503906-103.875-103.871094 46.507813-103.875 103.875-103.875 103.875 46.507812 103.875 103.875zm0 0" fill="#eea849"/><path d="m205.757812 193.722656c-88.085937-17.921875-129.527343-102.332031-114.566406-172.878906-25.175781 18.953125-41.457031 49.089844-41.457031 83.03125 0 57.367188 46.507813 103.871094 103.875 103.871094 19.007813 0 36.820313-5.109375 52.148437-14.023438zm0 0" fill="#e9901b"/><g fill="#f7ef87"><path d="m170.789062 111.375h-58.195312c-4.144531 0-7.5-3.359375-7.5-7.5 0-4.144531 3.355469-7.5 7.5-7.5h58.195312c10.527344 0 19.089844-8.5625 19.089844-19.089844s-8.5625-19.089844-19.089844-19.089844h-58.195312c-4.144531 0-7.5-3.355468-7.5-7.5 0-4.140624 3.355469-7.5 7.5-7.5h58.195312c18.796876 0 34.089844 15.292969 34.089844 34.089844s-15.292968 34.089844-34.089844 34.089844zm0 0"/><path d="m170.789062 164.550781h-58.195312c-4.144531 0-7.5-3.355469-7.5-7.5 0-4.140625 3.355469-7.5 7.5-7.5h58.195312c10.527344 0 19.089844-8.5625 19.089844-19.085937 0-10.527344-8.5625-19.089844-19.089844-19.089844-4.140624 0-7.5-3.359375-7.5-7.5 0-4.144531 3.359376-7.5 7.5-7.5 18.796876 0 34.089844 15.289062 34.089844 34.089844 0 18.796875-15.292968 34.085937-34.089844 34.085937zm0 0"/><path d="m132.902344 181.851562c-4.144532 0-7.5-3.359374-7.5-7.5v-140.957031c0-4.140625 3.355468-7.5 7.5-7.5 4.140625 0 7.5 3.359375 7.5 7.5v140.957031c0 4.144532-3.359375 7.5-7.5 7.5zm0 0"/><path d="m164.0625 58.195312c-4.140625 0-7.5-3.359374-7.5-7.5v-16.589843c0-4.140625 3.359375-7.5 7.5-7.5 4.144531 0 7.5 3.359375 7.5 7.5v16.589843c0 4.140626-3.355469 7.5-7.5 7.5zm0 0"/><path d="m164.0625 181.140625c-4.140625 0-7.5-3.359375-7.5-7.5v-16.589844c0-4.140625 3.359375-7.5 7.5-7.5 4.144531 0 7.5 3.359375 7.5 7.5v16.589844c0 4.140625-3.355469 7.5-7.5 7.5zm0 0"/></g><path d="m375.121094 512h-342.609375c-17.679688 0-32.011719-14.332031-32.011719-32.011719v-261.832031c0-17.679688 14.332031-32.011719 32.011719-32.011719h342.609375c47.941406 0 86.804687 38.863281 86.804687 86.804688v152.246093c0 47.941407-38.863281 86.804688-86.804687 86.804688zm0 0" fill="#e1b89a"/><path d="m168.539062 186.144531h-136.027343c-17.679688 0-32.011719 14.332031-32.011719 32.011719v261.832031c0 17.679688 14.332031 32.011719 32.011719 32.011719h187.21875c-49.828125-52.0625-85.046875-241.265625-51.191407-325.855469zm0 0" fill="#d2996f"/><path d="m368.777344 467.511719h-368.277344v-15h368.277344c15.960937 0 28.945312-12.984375 28.945312-28.945313v-148.988281c0-15.960937-12.984375-28.945313-28.945312-28.945313h-368.277344v-15h368.277344c24.234375 0 43.945312 19.710938 43.945312 43.945313v148.988281c0 24.234375-19.714844 43.945313-43.945312 43.945313zm0 0" fill="#6e7ca8"/><path d="m364.625 483.132812h-87.894531c-7.449219 0-13.484375-6.039062-13.484375-13.488281v-19.414062c0-7.449219 6.035156-13.488281 13.484375-13.488281h87.894531c7.449219 0 13.488281 6.039062 13.488281 13.488281v19.414062c0 7.449219-6.039062 13.488281-13.488281 13.488281zm0 0" fill="#f7ef87"/><path d="m137.636719 360.929688c0-16.773438-17.078125-30.371094-38.140625-30.371094s-38.140625 13.597656-38.140625 30.371094c0 16.773437 17.078125 30.371093 38.140625 30.371093s38.140625-13.597656 38.140625-30.371093zm0 0" fill="#fff"/><path d="m344.367188 360.929688c0-16.773438-17.078126-30.371094-38.140626-30.371094-21.066406 0-38.140624 13.597656-38.140624 30.371094 0 16.773437 17.074218 30.371093 38.140624 30.371093 21.0625 0 38.140626-13.597656 38.140626-30.371093zm0 0" fill="#fff"/><path d="m121.722656 338.132812c-4.140625 0-7.5-3.359374-7.5-7.5v-13.46875c0-4.144531 3.359375-7.5 7.5-7.5 4.144532 0 7.5 3.355469 7.5 7.5v13.46875c0 4.140626-3.355468 7.5-7.5 7.5zm0 0" fill="#4e5660"/><path d="m284 338.132812c-4.144531 0-7.5-3.359374-7.5-7.5v-13.46875c0-4.144531 3.355469-7.5 7.5-7.5 4.140625 0 7.5 3.355469 7.5 7.5v13.46875c0 4.140626-3.359375 7.5-7.5 7.5zm0 0" fill="#4e5660"/><path d="m202.863281 348.472656c-10.367187 0-20.226562-4.488281-27.046875-12.316406-2.722656-3.125-2.394531-7.859375.726563-10.582031 3.121093-2.722657 7.859375-2.394531 10.582031.726562 3.972656 4.558594 9.707031 7.171875 15.734375 7.171875 6.03125 0 11.765625-2.613281 15.738281-7.171875 2.722656-3.125 7.460938-3.445312 10.582032-.726562 3.125 2.722656 3.449218 7.457031.726562 10.582031-6.820312 7.828125-16.679688 12.316406-27.042969 12.316406zm0 0" fill="#4e5660"/></svg>