<svg height="438pt" viewBox="0 0 438 438" width="438pt" xmlns="http://www.w3.org/2000/svg"><path d="m111.839844 73.285156h-12.199219v65.9375h26.378906c9.105469 0 16.484375-7.378906 16.484375-16.484375 0-9.101562-7.378906-16.484375-16.484375-16.484375 9.105469 0 16.484375-7.378906 16.484375-16.484375s-7.378906-16.484375-16.484375-16.484375zm9.230468-38.710937c39.445313.003906 71.421876 31.984375 71.417969 71.429687 0 39.449219-31.980469 71.421875-71.429687 71.421875-39.445313-.003906-71.421875-31.984375-71.417969-71.429687.003906-39.449219 31.984375-71.421875 71.429687-71.421875zm0 0" fill="#e48e66"/><path d="m221.070312 105.996094c0 47.707031-33.699218 88.769531-80.488281 98.078125-46.792969 9.308593-93.640625-15.734375-111.898437-59.808594-18.257813-44.078125-2.839844-94.910156 36.828125-121.417969 39.667969-26.503906 92.535156-21.296875 126.269531 12.4375 18.785156 18.730469 29.328125 44.179688 29.289062 70.710938zm-28.570312 0c0-39.453125-31.980469-71.433594-71.429688-71.433594-39.449218 0-71.429687 31.980469-71.429687 71.433594 0 39.449218 31.980469 71.429687 71.429687 71.429687 39.449219 0 71.429688-31.980469 71.429688-71.429687zm0 0" fill="#f8ec7d"/><path d="m126.019531 106.253906c9.105469 0 16.484375 7.382813 16.484375 16.484375 0 9.105469-7.378906 16.484375-16.484375 16.484375h-26.378906v-32.96875zm0 0" fill="#f8ec7d"/><path d="m126.019531 73.285156c9.105469 0 16.484375 7.378906 16.484375 16.484375s-7.378906 16.484375-16.484375 16.484375h-26.378906v-32.96875zm0 0" fill="#f8ec7d"/><path d="m372 111.273438h60v320h-60zm0 0" fill="#6fe3ff"/><path d="m280.5 213.273438h60v218h-60zm0 0" fill="#6fe3ff"/><path d="m189 272.273438h60v159h-60zm0 0" fill="#6fe3ff"/><path d="m97.5 311.273438h60v120h-60zm0 0" fill="#6fe3ff"/><path d="m6 361.273438h60v70h-60zm0 0" fill="#6fe3ff"/><g fill="#63316d"><path d="m432 105.273438h-60c-3.3125 0-6 2.6875-6 6v320c0 3.316406 2.6875 6 6 6h60c3.3125 0 6-2.683594 6-6v-320c0-3.3125-2.6875-6-6-6zm-6 320h-48v-308h48zm0 0"/><path d="m340.5 207.273438h-60c-3.3125 0-6 2.6875-6 6v218c0 3.316406 2.6875 6 6 6h60c3.3125 0 6-2.683594 6-6v-218c0-3.3125-2.6875-6-6-6zm-6 218h-48v-206h48zm0 0"/><path d="m249 266.273438h-60c-3.3125 0-6 2.6875-6 6v159c0 3.316406 2.6875 6 6 6h60c3.3125 0 6-2.683594 6-6v-159c0-3.3125-2.6875-6-6-6zm-6 159h-48v-147h48zm0 0"/><path d="m157.5 305.273438h-60c-3.3125 0-6 2.6875-6 6v120c0 3.316406 2.6875 6 6 6h60c3.3125 0 6-2.683594 6-6v-120c0-3.3125-2.6875-6-6-6zm-6 120h-48v-108h48zm0 0"/><path d="m66 355.273438h-60c-3.3125 0-6 2.6875-6 6v70c0 3.316406 2.6875 6 6 6h60c3.3125 0 6-2.683594 6-6v-70c0-3.3125-2.6875-6-6-6zm-6 70h-48v-58h48zm0 0"/><path d="m296.035156 159.40625c48.402344-49.710938 76.851563-96.195312 87.464844-115.136719l5.878906 21.75c.863282 3.199219 4.15625 5.089844 7.355469 4.226563 3.199219-.863282 5.09375-4.15625 4.226563-7.355469l-9.910157-36.679687c-.863281-3.199219-4.15625-5.09375-7.355469-4.230469l-38.617187 10.421875c-3.171875.882812-5.039063 4.160156-4.179687 7.339844.855468 3.179687 4.113281 5.074218 7.300781 4.246093l25.519531-6.886719c-9.742188 17.433594-38.296875 64.726563-86.574219 114.226563-35.46875 36.375-74.5 66.816406-116 90.476563-51.171875 29.316406-107.519531 48.492187-165.953125 56.476562-3.125.425781-5.386718 3.195312-5.175781 6.34375s2.820313 5.59375 5.972656 5.597656c.273438 0 .546875-.015625.820313-.054687 60.039062-8.199219 117.933594-27.917969 170.5-58.066407 42.511718-24.265624 82.457031-55.453124 118.726562-92.695312zm0 0"/><path d="m121.070312 183.425781c42.757813-.003906 77.421876-34.667969 77.417969-77.429687 0-42.757813-34.664062-77.421875-77.421875-77.421875-42.757812 0-77.421875 34.660156-77.425781 77.421875.046875 42.742187 34.6875 77.378906 77.429687 77.429687zm0-142.851562c36.132813.003906 65.421876 29.296875 65.417969 65.429687 0 36.132813-29.296875 65.421875-65.429687 65.421875-36.132813-.003906-65.421875-29.296875-65.417969-65.429687.042969-36.117188 29.3125-65.382813 65.429687-65.421875zm0 0"/><path d="m15.070312 105.996094c-.082031 28.125 11.097657 55.113281 31.042969 74.949218 41.394531 41.390626 108.507813 41.390626 149.902344 0 41.394531-41.394531 41.394531-108.511718 0-149.90625-30.320313-30.3125-75.90625-39.375-115.511719-22.96875-39.609375 16.40625-65.429687 55.054688-65.433594 97.925782zm38.398438-59.117188c2.34375 2.34375 6.144531 2.34375 8.488281 0s2.34375-6.144531 0-8.488281l-2.972656-2.96875c15.582031-13.785156 35.324219-21.964844 56.085937-23.234375v4.199219c0 3.316406 2.6875 6 6 6s6-2.683594 6-6v-4.199219c20.765626 1.269531 40.507813 9.449219 56.089844 23.238281l-2.964844 2.96875c-2.34375 2.34375-2.339843 6.144531.003907 8.484375 2.347656 2.34375 6.144531 2.339844 8.488281-.003906l2.957031-2.964844c13.789063 15.578125 21.964844 35.320313 23.230469 56.085938h-4.195312c-3.3125 0-6 2.683594-6 6 0 3.3125 2.6875 6 6 6h4.199218c-1.261718 20.765625-9.441406 40.507812-23.230468 56.085937l-2.960938-2.960937c-2.34375-2.34375-6.144531-2.34375-8.488281 0-2.339844 2.34375-2.339844 6.144531 0 8.484375l2.960937 2.960937c-15.578125 13.789063-35.320312 21.96875-56.085937 23.234375v-4.199219c0-3.316406-2.6875-6-6-6s-6 2.683594-6 6v4.199219c-20.761719-1.265625-40.507813-9.445312-56.085938-23.230469l2.964844-2.960937c2.347656-2.339844 2.347656-6.140625.007813-8.484375-2.34375-2.34375-6.140626-2.347656-8.488282-.007812l-2.972656 2.96875c-13.792969-15.578126-21.972656-35.324219-23.234375-56.089844h4.199219c3.3125 0 6-2.6875 6-6 0-3.316406-2.6875-6-6-6h-4.199219c1.265625-20.765625 9.445313-40.511719 23.234375-56.089844zm0 0"/><path d="m99.640625 145.222656h6.199219v4.871094c0 3.3125 2.6875 6 6 6s6-2.6875 6-6v-4.871094h3.609375v4.871094c0 3.3125 2.6875 6 6 6 3.316406 0 6-2.6875 6-6v-6.148438c7.445312-2.601562 12.980469-8.914062 14.582031-16.636718 1.601562-7.71875-.960938-15.714844-6.753906-21.0625.207031-.195313.425781-.371094.628906-.574219 4.238281-4.203125 6.613281-9.929687 6.59375-15.898437-.011719-9.550782-6.042969-18.054688-15.050781-21.222657v-6.65625c0-3.3125-2.683594-6-6-6-3.3125 0-6 2.6875-6 6v5.390625h-3.609375v-5.390625c0-3.3125-2.6875-6-6-6s-6 2.6875-6 6v5.390625h-6.199219c-3.3125 0-6 2.683594-6 6v65.9375c0 3.316406 2.6875 6 6 6zm36.859375-22.488281c0 5.789063-4.691406 10.484375-10.480469 10.488281h-20.378906v-20.96875h20.378906c5.785157.007813 10.472657 4.695313 10.480469 10.480469zm-10.480469-43.449219c5.789063.011719 10.476563 4.703125 10.480469 10.488282-.007812 5.785156-4.695312 10.472656-10.480469 10.480468h-20.378906v-20.96875zm0 0"/></g></svg>