<?xml version="1.0" encoding="iso-8859-1"?>
<!-- Generator: Adobe Illustrator 19.0.0, SVG Export Plug-In . SVG Version: 6.00 Build 0)  -->
<svg version="1.1" id="Capa_1" xmlns="http://www.w3.org/2000/svg" xmlns:xlink="http://www.w3.org/1999/xlink" x="0px" y="0px"
	 viewBox="0 0 472 472" style="enable-background:new 0 0 472 472;" xml:space="preserve">
<path style="fill:#FFD422;" d="M236,8c-44.183,0-80,35.817-80,80c-0.015,11.018,2.274,21.918,6.72,32h146.56
	c4.446-10.082,6.735-20.982,6.72-32C316,43.817,280.183,8,236,8z"/>
<path style="fill:#FFA733;" d="M236,0c-48.577,0.057-87.943,39.423-88,88c-0.027,12.135,2.494,24.141,7.4,35.24l2.112,4.76h156.976
	l2.112-4.76c4.906-11.099,7.427-23.105,7.4-35.24C323.943,39.423,284.577,0.057,236,0L236,0z M212,64h40c4.418,0,8,3.582,8,8
	s-3.582,8-8,8h-40V64z M212,112V96h40c4.418,0,8,3.582,8,8c0.007,2.156-0.879,4.218-2.448,5.696
	c-1.459,1.493-3.465,2.325-5.552,2.304H212z M303.872,112h-29.328c3.06-8.265,1.203-17.548-4.8-24
	c8.894-9.75,8.2-24.864-1.55-33.758C263.769,50.205,257.989,47.978,252,48h-8V32h-16v16h-8V32h-16v16c-4.418,0-8,3.582-8,8v56
	h-27.872c-2.752-7.702-4.148-15.822-4.128-24c0-39.765,32.236-72,72-72s72,32.235,72,72C308.02,96.178,306.624,104.298,303.872,112
	L303.872,112z"/>
<path style="fill:#ACABB1;" d="M36,168v240h112V216h176v192h112V168H36z"/>
<path style="fill:#57565C;" d="M252,120h-48h-41.28H4v48h32h400h32v-48H309.28H252z"/>
<path style="fill:#00BB77;" d="M148,216v256h176V216H148z M236,376c-35.346,0-64-28.654-64-64s28.654-64,64-64s64,28.654,64,64
	S271.346,376,236,376z"/>
<circle style="fill:#FFD422;" cx="236" cy="312" r="64"/>
<g>
	<path style="fill:#FFA733;" d="M274.528,304c-4.393-12.473-18.066-19.023-30.539-14.629c-9.596,3.38-16.009,12.455-15.989,22.629
		c0,4.418-3.582,8-8,8s-8-3.582-8-8s3.582-8,8-8v-16c-10.134,0.042-19.15,6.445-22.528,16H188v16h9.472
		c4.393,12.473,18.066,19.023,30.539,14.629c9.596-3.38,16.009-12.455,15.989-22.629c0-4.418,3.582-8,8-8s8,3.582,8,8s-3.582,8-8,8
		v16c10.134-0.042,19.15-6.445,22.528-16H284v-16H274.528z"/>
	<path style="fill:#FFA733;" d="M236,240c-39.764,0-72,32.236-72,72s32.236,72,72,72s72-32.236,72-72
		C307.952,272.256,275.744,240.048,236,240z M236,368c-30.928,0-56-25.072-56-56s25.072-56,56-56s56,25.072,56,56
		C291.965,342.913,266.913,367.965,236,368z"/>
	<path style="fill:#FFA733;" d="M228,264h16v16h-16V264z"/>
	<path style="fill:#FFA733;" d="M228,344h16v16h-16V344z"/>
</g>
<g>
	<path style="fill:#C6C5CA;" d="M212,448h-32c-4.418,0-8-3.582-8-8v-32h16v24h24V448z"/>
	<path style="fill:#C6C5CA;" d="M292,448h-32v-16h24v-24h16v32C300,444.418,296.418,448,292,448z"/>
</g>
<path style="fill:#57565C;" d="M116,208h240v16H116V208z"/>
<g>
	<path style="fill:#FF9811;" d="M420,16c0,0,0,40,40,40c0,0-40,0-40,40c0,0,0-40-40-40C380,56,420,56,420,16z"/>
	<path style="fill:#FF9811;" d="M52,16c0,0,0,40,40,40c0,0-40,0-40,40c0,0,0-40-40-40C12,56,52,56,52,16z"/>
</g>
<g>
</g>
<g>
</g>
<g>
</g>
<g>
</g>
<g>
</g>
<g>
</g>
<g>
</g>
<g>
</g>
<g>
</g>
<g>
</g>
<g>
</g>
<g>
</g>
<g>
</g>
<g>
</g>
<g>
</g>
</svg>
