<svg height="511pt" viewBox="0 0 511.99989 511" width="511pt" xmlns="http://www.w3.org/2000/svg"><path d="m30.1875 499.164062c-4.3125 0-8.625-1.644531-11.914062-4.9375-14.335938-14.335937-20.285157-35.148437-17.675782-61.863281 2.214844-22.710937 10.640625-49.308593 25.035156-79.054687 28.621094-59.136719 78.3125-125.632813 139.929688-187.25 61.613281-61.613282 128.113281-111.304688 187.246094-139.925782 29.746094-14.394531 56.34375-22.820312 79.054687-25.035156 26.714844-2.609375 47.53125 3.335938 61.863281 17.675782 6.582032 6.578124 6.582032 17.25 0 23.832031-6.578124 6.582031-17.25 6.582031-23.832031 0-6.863281-6.863281-18.554687-9.542969-34.753906-7.964844-18.472656 1.804687-41.867187 9.351563-67.648437 21.832031-55.832032 27.019532-119.078126 74.402344-178.097657 133.421875-59.019531 59.015625-106.402343 122.265625-133.421875 178.097657-12.480468 25.78125-20.027344 49.175781-21.832031 67.644531-1.582031 16.199219 1.097656 27.894531 7.964844 34.757812 6.578125 6.582031 6.578125 17.253907 0 23.832031-3.292969 3.292969-7.605469 4.9375-11.917969 4.9375zm0 0" fill="#efd176"/><path d="m478.417969 244.140625c0 127.183594-103.101563 230.285156-230.28125 230.285156-127.183594 0-230.285157-103.101562-230.285157-230.285156 0-127.179687 103.101563-230.28125 230.285157-230.28125 127.179687 0 230.28125 103.101563 230.28125 230.28125zm0 0" fill="#6e7ca8"/><path d="m413.28125 404.613281c-295.726562-1.457031-318.589844-276.207031-234.65625-380.066406-93.207031 29.476563-160.773438 116.640625-160.773438 219.59375 0 127.183594 103.101563 230.285156 230.285157 230.285156 64.777343 0 123.300781-26.757812 165.144531-69.8125zm0 0" fill="#54669e"/><path d="m461.054688 331.988281h-112.304688c7.695312-26.5625 12.109375-54.027343 12.820312-80.347656h116.714844c.078125-2.488281.132813-4.988281.132813-7.5s-.054688-5.007813-.132813-7.5h-116.714844c-.710937-26.320313-5.125-53.785156-12.820312-80.347656h112.304688c-2.105469-5.09375-4.386719-10.097657-6.839844-15h-110.203125c-2.753907-8.070313-5.804688-16.019531-9.152344-23.785157-17.851563-41.378906-43.496094-76.898437-74.492187-103.328124-4.050782-.210938-8.128907-.320313-12.230469-.320313-4.105469 0-8.179688.109375-12.230469.320313-30.996094 26.429687-56.640625 61.949218-74.492188 103.328124-3.351562 7.765626-6.398437 15.714844-9.152343 23.785157h-110.207031c-2.449219 4.902343-4.734376 9.90625-6.835938 15h112.304688c-7.695313 26.5625-12.113282 54.027343-12.824219 80.347656h-116.714844c-.078125 2.492187-.132813 4.988281-.132813 7.5s.054688 5.007813.132813 7.5h116.714844c.710937 26.324219 5.125 53.785156 12.824219 80.347656h-112.304688c2.105469 5.097657 4.386719 10.097657 6.839844 15h110.203125c2.753906 8.070313 5.800781 16.023438 9.152343 23.789063 17.851563 41.378906 43.496094 76.898437 74.492188 103.324218 4.050781.210938 8.125.324219 12.230469.324219 4.101562 0 8.179687-.113281 12.226562-.324219 30.996094-26.429687 56.644531-61.945312 74.496094-103.324218 3.347656-7.765625 6.398437-15.71875 9.152344-23.789063h110.203125c2.453125-4.902343 4.734375-9.902343 6.839844-15zm-285.867188-208.539062c17.425781-40.390625 42.578125-74.816407 72.949219-99.953125 30.371093 25.136718 55.523437 59.5625 72.949219 99.953125 2.519531 5.847656 4.847656 11.808593 7.019531 17.84375h-159.9375c2.167969-6.035157 4.496093-11.996094 7.019531-17.84375zm145.898438 241.382812c-17.425782 40.390625-42.578126 74.820313-72.949219 99.953125-30.371094-25.132812-55.523438-59.5625-72.949219-99.953125-2.523438-5.84375-4.851562-11.808593-7.019531-17.84375h159.9375c-2.171875 6.035157-4.5 12-7.019531 17.84375zm11.996093-32.84375h-169.890625c-8.070312-26.492187-12.742187-54.019531-13.492187-80.347656h196.871093c-.75 26.324219-5.417968 53.855469-13.488281 80.347656zm-183.382812-95.347656c.75-26.324219 5.421875-53.855469 13.492187-80.347656h169.890625c8.070313 26.492187 12.742188 54.023437 13.488281 80.347656zm0 0" fill="#a3defe"/><path d="m68.316406 512.5c-21.097656 0-37.898437-6.125-50.042968-18.273438-6.582032-6.578124-6.582032-17.25 0-23.832031 6.578124-6.582031 17.25-6.582031 23.832031 0 6.863281 6.867188 18.554687 9.542969 34.753906 7.964844 18.472656-1.804687 41.867187-9.351563 67.648437-21.832031 55.828126-27.019532 119.078126-74.402344 178.097657-133.421875s106.402343-122.265625 133.421875-178.097657c12.480468-25.78125 20.027344-49.175781 21.832031-67.644531 1.578125-16.199219-1.097656-27.894531-7.964844-34.757812-6.582031-6.582031-6.582031-17.253907 0-23.832031 6.582031-6.582032 17.253907-6.582032 23.832031 0 14.335938 14.335937 20.285157 35.148437 17.675782 61.863281-2.21875 22.710937-10.640625 49.308593-25.039063 79.054687-28.617187 59.136719-78.3125 125.632813-139.925781 187.25-61.613281 61.613282-128.113281 111.304688-187.246094 139.925782-29.746094 14.394531-56.347656 22.820312-79.058594 25.035156-4.074218.398437-8.015624.597656-11.816406.597656zm0 0" fill="#efd176"/><path d="m512 244.472656c0 64.730469-52.472656 117.203125-117.199219 117.203125-64.730469 0-117.203125-52.472656-117.203125-117.203125 0-64.726562 52.472656-117.199218 117.203125-117.199218 64.726563 0 117.199219 52.472656 117.199219 117.199218zm0 0" fill="#eea849"/><path d="m453.636719 345.851562c-99.386719-20.222656-146.144531-115.460937-129.265625-195.0625-28.402344 21.386719-46.773438 55.390626-46.773438 93.683594 0 64.730469 52.472656 117.203125 117.203125 117.203125 21.445313 0 41.542969-5.765625 58.835938-15.824219zm0 0" fill="#e9901b"/><g fill="#f7ef87"><path d="m414.183594 251.972656h-65.664063c-4.140625 0-7.5-3.355468-7.5-7.5 0-4.140625 3.359375-7.5 7.5-7.5h65.664063c12.410156 0 22.503906-10.09375 22.503906-22.5s-10.09375-22.5-22.503906-22.5h-65.664063c-4.140625 0-7.5-3.359375-7.5-7.5 0-4.144531 3.359375-7.5 7.5-7.5h65.664063c20.679687 0 37.503906 16.820313 37.503906 37.5-.003906 20.679688-16.824219 37.5-37.503906 37.5zm0 0"/><path d="m414.183594 311.972656h-65.664063c-4.140625 0-7.5-3.355468-7.5-7.5 0-4.140625 3.359375-7.5 7.5-7.5h65.664063c12.410156 0 22.503906-10.09375 22.503906-22.5s-10.09375-22.5-22.503906-22.5c-4.140625 0-7.5-3.355468-7.5-7.5 0-4.140625 3.359375-7.5 7.5-7.5 20.679687 0 37.503906 16.824219 37.503906 37.5 0 20.679688-16.824219 37.5-37.503906 37.5zm0 0"/><path d="m371.433594 331.496094c-4.140625 0-7.5-3.359375-7.5-7.5v-159.042969c0-4.144531 3.359375-7.5 7.5-7.5s7.5 3.355469 7.5 7.5v159.042969c0 4.140625-3.359375 7.5-7.5 7.5zm0 0"/><path d="m406.59375 191.972656c-4.140625 0-7.5-3.359375-7.5-7.5v-18.71875c0-4.140625 3.359375-7.5 7.5-7.5s7.5 3.359375 7.5 7.5v18.71875c0 4.140625-3.359375 7.5-7.5 7.5zm0 0"/><path d="m406.59375 330.691406c-4.140625 0-7.5-3.355468-7.5-7.5v-18.71875c0-4.140625 3.359375-7.5 7.5-7.5s7.5 3.359375 7.5 7.5v18.71875c0 4.144532-3.359375 7.5-7.5 7.5zm0 0"/></g></svg>